<?xml version="1.0" standalone="no"?>
<!DOCTYPE svg PUBLIC "-//W3C//DTD SVG 20010904//EN"
 "http://www.w3.org/TR/2001/REC-SVG-20010904/DTD/svg10.dtd">
<svg version="1.0" xmlns="http://www.w3.org/2000/svg"
 width="1500.000000pt" height="1500.000000pt" viewBox="0 0 1500.000000 1500.000000"
 preserveAspectRatio="xMidYMid meet">

<g transform="translate(0.000000,1500.000000) scale(0.100000,-0.100000)"
fill="#010042" stroke="none">
<path d="M11110 8936 l0 -183 91 -8 c106 -8 126 -15 154 -55 12 -16 174 -464
360 -995 l339 -965 362 0 362 0 51 153 c27 83 168 517 311 962 144 446 268
820 276 833 27 42 72 60 166 68 l88 7 0 183 0 184 -500 0 -500 0 0 -189 0
-189 120 -7 c66 -4 120 -10 120 -12 0 -7 -423 -1404 -452 -1491 -11 -35 -24
-60 -28 -55 -4 4 -115 350 -245 768 -131 418 -240 765 -242 771 -3 8 39 14
141 19 l146 7 0 189 0 189 -560 0 -560 0 0 -184z"/>
<path d="M1450 8936 l0 -144 100 -7 100 -7 0 -52 c0 -136 -90 -1578 -100
-1596 -16 -30 -49 -43 -125 -49 l-70 -6 -3 -137 -3 -138 406 0 405 0 0 144 0
144 -111 7 -110 7 6 92 c3 50 19 333 35 630 16 296 31 540 33 543 3 2 19 -33
37 -79 17 -46 133 -348 259 -673 l227 -590 165 -3 165 -2 237 612 c130 337
249 644 263 681 15 37 29 66 31 63 3 -3 20 -278 39 -612 28 -532 31 -611 18
-635 -17 -33 -37 -41 -129 -48 l-70 -6 -3 -137 -3 -138 416 0 415 0 0 144 0
144 -104 7 -104 7 -7 82 c-9 123 -74 1349 -77 1446 -1 47 1 95 5 107 12 35 55
55 131 62 l71 6 3 138 3 137 -343 0 -343 0 -239 -633 c-366 -966 -348 -920
-358 -904 -6 12 -528 1392 -570 1510 l-10 27 -344 0 -344 0 0 -144z"/>
<path d="M10740 8588 c-233 -82 -342 -273 -327 -578 8 -170 47 -278 133 -370
168 -179 509 -172 673 15 45 51 88 145 106 231 19 88 19 279 1 366 -32 149
-117 261 -243 321 -61 28 -79 32 -173 35 -89 2 -115 -1 -170 -20z m258 -170
c107 -55 159 -221 140 -443 -18 -209 -125 -321 -288 -302 -169 20 -251 170
-237 431 7 146 45 237 121 297 69 55 178 61 264 17z"/>
<path d="M4290 8525 c0 -61 1 -65 23 -65 12 0 32 -3 45 -6 l22 -6 0 -384 0
-384 -26 -10 c-14 -6 -36 -10 -50 -10 -23 0 -24 -3 -24 -65 l0 -65 380 0 380
0 0 145 0 145 -70 0 c-38 0 -73 1 -77 3 -5 1 -9 -24 -11 -56 -4 -74 -12 -77
-178 -77 l-124 0 0 150 0 150 183 2 182 3 3 83 3 82 -186 0 -185 0 0 135 0
136 138 -3 137 -3 3 -52 3 -53 38 0 c21 0 59 3 85 6 l46 7 0 128 0 129 -370 0
-370 0 0 -65z"/>
<path d="M5170 8526 c0 -62 1 -66 23 -66 12 0 32 -3 45 -6 l22 -6 0 -379 0
-378 -22 -15 c-12 -9 -35 -16 -50 -16 -28 0 -28 -1 -28 -65 l0 -65 200 0 200
0 0 70 0 70 -50 0 -50 0 0 140 0 140 88 0 c65 0 94 -4 111 -17 23 -15 121
-209 121 -238 0 -17 -31 -35 -59 -35 -19 0 -21 -6 -21 -65 l0 -65 200 0 201 0
-3 68 -3 67 -46 3 -46 3 -64 142 c-40 89 -76 153 -98 175 -18 18 -31 35 -30
36 2 1 21 13 41 25 56 34 107 98 125 160 34 117 -5 259 -86 315 -82 57 -102
60 -423 64 l-298 3 0 -65z m554 -111 c51 -24 69 -68 64 -152 -7 -118 -60 -156
-220 -162 l-108 -3 0 172 0 173 113 -5 c81 -3 123 -9 151 -23z"/>
<path d="M6170 8525 c0 -61 1 -65 23 -65 12 0 32 -3 45 -6 l22 -6 0 -377 c0
-207 -4 -382 -9 -389 -4 -8 -27 -16 -50 -19 l-41 -6 0 -63 0 -64 195 0 195 0
0 70 0 70 -45 0 -45 0 0 384 c0 295 3 386 13 394 6 6 28 12 47 14 l35 3 3 63
3 62 -196 0 -195 0 0 -65z"/>
<path d="M6660 8526 l0 -63 50 -7 50 -7 0 -370 c0 -235 -4 -377 -10 -390 -7
-11 -26 -21 -50 -25 l-40 -7 0 -63 0 -64 258 0 c191 0 273 4 320 15 237 56
362 247 362 552 0 107 -18 201 -51 265 -31 61 -115 144 -173 173 -102 49 -149
55 -443 55 l-273 0 0 -64z m578 -116 c58 -25 106 -73 133 -135 41 -93 43 -293
4 -407 -22 -62 -93 -141 -147 -163 -30 -12 -80 -20 -160 -23 l-118 -4 0 382 0
382 118 -4 c93 -4 128 -9 170 -28z"/>
<path d="M7720 8526 l0 -63 50 -7 50 -7 0 -364 c0 -210 -4 -374 -10 -389 -7
-20 -19 -27 -50 -32 l-40 -7 0 -63 0 -64 190 0 190 0 0 70 0 70 -45 0 -45 0 0
379 c0 421 -2 411 66 411 l34 0 0 65 0 65 -195 0 -195 0 0 -64z"/>
<path d="M8422 8528 l3 -63 48 -3 c26 -2 47 -6 47 -10 0 -4 -57 -173 -127
-377 -132 -383 -147 -415 -198 -415 -24 0 -25 -2 -25 -65 l0 -65 185 0 186 0
-3 68 -3 67 -48 3 c-33 2 -47 7 -44 15 2 7 13 38 23 70 l18 57 190 -2 189 -3
20 -58 c22 -68 18 -76 -42 -84 l-41 -6 0 -63 0 -64 205 0 205 0 0 70 0 70 -47
0 -48 0 -161 458 -161 457 -187 3 -187 2 3 -62z m327 -333 c34 -110 64 -208
67 -217 5 -17 -6 -18 -140 -18 -80 0 -146 3 -146 6 0 23 144 444 150 437 4 -4
35 -98 69 -208z"/>
<path d="M9270 8526 l0 -63 50 -7 50 -7 0 -374 c0 -362 -1 -376 -20 -395 -11
-11 -33 -20 -50 -20 l-30 0 0 -65 0 -65 195 0 196 0 -3 68 -3 67 -52 3 -53 3
0 302 c0 225 3 298 11 290 7 -7 112 -173 234 -370 l222 -358 96 -3 97 -3 0
454 c0 339 3 456 12 465 7 7 27 12 45 12 l33 0 0 65 0 65 -195 0 -195 0 0 -64
0 -63 51 -6 c29 -4 53 -8 56 -10 2 -2 2 -135 1 -296 l-3 -291 -225 365 -225
365 -147 0 -148 0 0 -64z"/>
<path d="M4497 7340 c-127 -32 -197 -135 -197 -290 0 -102 23 -167 80 -221 35
-35 60 -49 100 -59 61 -15 185 -8 227 12 26 12 28 17 31 86 3 69 2 72 -20 72
-13 0 -33 3 -45 6 -21 6 -23 3 -23 -40 0 -41 -3 -48 -27 -57 -16 -6 -47 -8
-71 -5 -102 14 -142 72 -142 207 1 150 50 212 165 207 l60 -3 3 -47 c3 -51 6
-53 61 -42 l32 7 -3 71 -3 71 -39 13 c-54 18 -143 23 -189 12z"/>
<path d="M8314 7341 c-112 -29 -169 -148 -114 -238 25 -41 51 -58 140 -88 87
-29 110 -48 110 -87 0 -47 -39 -78 -99 -78 -70 0 -81 6 -81 46 0 34 -1 34 -45
34 l-45 0 0 -69 c0 -69 0 -69 33 -81 50 -18 167 -24 215 -11 88 24 139 99 129
189 -7 63 -58 111 -153 142 -82 27 -114 53 -114 92 0 48 32 69 98 66 l57 -3 3
-38 3 -38 42 3 42 3 0 65 0 65 -39 13 c-51 17 -143 23 -182 13z"/>
<path d="M9277 7336 c-67 -18 -117 -62 -152 -131 -26 -52 -30 -70 -30 -145 0
-116 18 -173 74 -231 49 -51 94 -69 170 -69 71 0 122 21 172 70 37 37 49 58
64 113 21 79 17 199 -9 262 -46 109 -168 165 -289 131z m154 -114 c35 -39 49
-89 49 -172 0 -85 -15 -137 -50 -172 -24 -24 -36 -28 -84 -28 -47 0 -60 4 -90
30 -43 38 -60 104 -54 205 8 120 61 180 152 172 40 -4 55 -11 77 -35z"/>
<path d="M4810 7300 c0 -36 3 -40 25 -40 l25 0 0 -204 0 -204 -30 -11 c-24 -8
-30 -16 -30 -40 l0 -31 205 0 205 0 0 85 0 85 -45 0 -45 0 0 -40 0 -40 -80 0
-80 0 2 198 c3 194 3 197 26 207 16 7 22 18 22 42 l0 33 -100 0 -100 0 0 -40z"/>
<path d="M5260 7300 c0 -36 3 -40 24 -40 l25 0 3 -199 c3 -185 5 -202 24 -228
33 -44 79 -65 152 -71 80 -5 140 9 182 44 52 44 55 56 60 259 5 185 6 190 28
200 16 7 22 18 22 42 l0 33 -101 0 -100 0 3 -37 c2 -31 7 -39 26 -41 22 -3 22
-5 22 -178 l0 -176 -29 -29 c-25 -25 -37 -29 -83 -29 -99 1 -108 21 -108 239
l0 171 25 6 c21 5 25 12 25 40 l0 34 -100 0 -100 0 0 -40z"/>
<path d="M5832 7303 c2 -31 7 -39 26 -41 l22 -3 -2 -207 c-3 -206 -3 -207 -25
-210 -19 -3 -23 -10 -23 -39 l0 -35 163 4 c184 3 223 15 265 78 20 30 23 44
20 99 -4 57 -8 67 -36 92 -18 16 -40 29 -50 29 -12 0 -8 7 15 26 60 47 63 147
7 199 -37 34 -98 45 -249 45 l-136 0 3 -37z m297 -67 c27 -25 27 -68 -1 -101
-20 -22 -32 -26 -83 -28 l-60 -2 -3 79 -3 78 65 -4 c45 -3 71 -10 85 -22z
m-10 -217 c17 -6 36 -19 41 -29 11 -21 13 -70 4 -95 -11 -27 -60 -45 -124 -45
l-60 0 0 90 0 90 54 0 c29 0 67 -5 85 -11z"/>
<path d="M6490 7300 c0 -33 3 -40 19 -40 15 0 37 -34 91 -136 l71 -135 -3 -72
-3 -72 -32 -3 c-30 -3 -33 -6 -33 -38 l0 -34 120 0 120 0 0 35 c0 32 -2 35
-30 35 l-30 0 0 76 c0 75 1 80 68 207 43 83 75 133 90 140 16 8 22 19 22 44
l0 33 -90 0 -90 0 0 -36 c0 -28 5 -37 20 -41 12 -3 19 -8 18 -12 -48 -96 -84
-161 -88 -161 -7 0 -80 146 -80 159 0 6 9 13 20 16 15 5 20 15 20 41 l0 34
-100 0 -100 0 0 -40z"/>
<path d="M7172 7303 c2 -31 7 -39 26 -41 l22 -3 -2 -207 c-3 -206 -3 -207 -25
-210 -19 -3 -23 -10 -23 -38 l0 -34 105 0 105 0 0 34 c0 30 -3 35 -27 38 -27
3 -28 5 -31 76 l-3 72 54 0 c37 0 59 -5 67 -15 12 -15 60 -112 60 -121 0 -3
-11 -9 -25 -14 -19 -7 -25 -17 -25 -40 l0 -30 110 0 110 0 0 35 c0 31 -3 35
-26 35 -22 0 -30 10 -60 78 -20 42 -42 85 -51 94 -14 15 -11 20 25 55 66 62
69 158 9 218 -43 43 -104 55 -268 55 l-130 0 3 -37z m306 -69 c17 -12 22 -25
22 -63 0 -69 -27 -92 -111 -94 l-64 -2 -3 88 -3 87 68 0 c46 0 76 -5 91 -16z"/>
<path d="M7710 7300 c0 -33 3 -40 20 -40 20 0 20 -5 18 -207 -3 -207 -3 -208
-25 -211 -19 -3 -23 -10 -23 -38 l0 -34 205 0 205 0 0 75 c0 57 -3 75 -14 75
-7 0 -28 3 -45 6 -30 6 -31 6 -31 -30 l0 -36 -80 0 -80 0 0 80 0 80 100 0 100
0 0 40 0 40 -100 0 -100 0 0 75 0 76 73 -3 c70 -3 72 -4 75 -30 3 -24 8 -28
35 -28 52 0 58 10 55 81 l-3 64 -192 3 -193 2 0 -40z"/>
<path d="M8600 7265 l0 -75 45 0 c43 0 45 1 45 30 0 28 2 30 40 30 l40 0 -2
-202 -3 -203 -32 -3 c-30 -3 -33 -6 -33 -38 l0 -34 120 0 120 0 0 35 c0 32 -2
35 -30 35 l-30 0 0 205 0 205 40 0 c38 0 40 -2 40 -30 0 -29 2 -30 45 -30 l46
0 -3 73 -3 72 -222 3 -223 2 0 -75z"/>
<path d="M9660 7301 c0 -37 2 -41 25 -41 l25 0 0 -191 c0 -197 -6 -229 -40
-229 -16 0 -20 -7 -20 -35 l0 -35 105 0 105 0 0 35 c0 31 -3 35 -25 35 -24 0
-25 2 -25 75 l0 76 58 -3 57 -3 27 -55 c33 -67 35 -90 8 -90 -16 0 -20 -7 -20
-35 l0 -35 105 0 105 0 0 35 c0 30 -3 35 -23 35 -19 0 -30 15 -65 90 -24 50
-47 90 -52 90 -19 0 -10 17 15 30 62 33 87 149 46 216 -34 56 -77 68 -253 72
l-158 4 0 -41z m309 -77 c23 -29 26 -59 11 -98 -12 -33 -37 -45 -110 -53 l-60
-6 0 92 0 91 69 0 c63 0 71 -2 90 -26z"/>
<path d="M10300 7305 c0 -28 4 -35 19 -35 11 0 23 -5 26 -10 7 -11 -120 -386
-137 -407 -6 -7 -19 -13 -29 -13 -15 0 -19 -7 -19 -35 l0 -35 100 0 100 0 0
35 c0 27 -4 35 -18 35 -28 0 -31 8 -19 46 l10 34 103 0 c97 0 102 -1 108 -22
12 -45 7 -58 -19 -58 -22 0 -25 -4 -25 -35 l0 -35 110 0 110 0 0 35 c0 28 -4
35 -19 35 -10 0 -23 6 -28 13 -5 6 -47 119 -93 250 l-84 237 -98 0 -98 0 0
-35z m175 -178 c19 -62 35 -116 35 -120 0 -4 -34 -7 -75 -7 -41 0 -75 3 -75 7
0 10 74 233 77 233 1 0 18 -51 38 -113z"/>
<path d="M10754 7326 c-11 -29 1 -61 24 -64 l22 -3 -2 -207 c-3 -206 -3 -207
-25 -210 -19 -3 -23 -10 -23 -38 l0 -34 105 0 105 0 0 34 c0 30 -3 35 -27 38
l-28 3 -3 160 c-2 136 -1 158 11 145 8 -8 65 -97 126 -197 l113 -183 49 0 49
0 2 243 c3 240 3 242 26 252 16 7 22 18 22 43 l0 33 -102 -3 -103 -3 0 -35 c0
-31 3 -35 28 -38 l27 -3 0 -157 c0 -133 -2 -154 -13 -137 -8 11 -62 100 -122
198 l-108 177 -74 0 c-55 0 -75 -4 -79 -14z"/>
</g>
</svg>
