<?xml version="1.0" standalone="no"?>
<!DOCTYPE svg PUBLIC "-//W3C//DTD SVG 20010904//EN"
 "http://www.w3.org/TR/2001/REC-SVG-20010904/DTD/svg10.dtd">
<svg version="1.0" xmlns="http://www.w3.org/2000/svg"
 width="1500.000000pt" height="1500.000000pt" viewBox="0 0 1500.000000 1500.000000"
 preserveAspectRatio="xMidYMid meet">

<g transform="translate(0.000000,1500.000000) scale(0.100000,-0.100000)"
fill="#000000" stroke="none">
<path d="M0 7500 l0 -7500 7500 0 7500 0 0 7500 0 7500 -7500 0 -7500 0 0
-7500z m8035 6445 c921 -79 1827 -356 2625 -803 927 -519 1739 -1289 2302
-2182 577 -916 910 -1928 989 -3010 16 -217 16 -726 0 -915 -110 -1321 -560
-2488 -1351 -3510 -292 -377 -713 -800 -1105 -1111 -389 -308 -897 -614 -1360
-819 -684 -303 -1372 -477 -2160 -546 -177 -16 -741 -16 -940 0 -1093 88
-2079 413 -2995 989 -607 382 -1194 914 -1635 1482 -395 509 -706 1056 -927
1625 -235 607 -374 1220 -429 1890 -16 191 -16 701 0 915 97 1310 566 2524
1375 3555 296 377 697 778 1071 1071 1105 866 2396 1336 3810 1388 163 6 557
-4 730 -19z"/>
<path d="M12137 9629 c-74 -17 -152 -62 -213 -124 -103 -102 -144 -207 -144
-370 0 -233 107 -399 299 -467 82 -28 229 -35 311 -13 235 61 383 273 367 525
-15 221 -133 381 -326 440 -68 22 -222 26 -294 9z m214 -244 c91 -33 130 -102
133 -235 1 -98 -13 -146 -57 -196 -37 -43 -69 -60 -129 -69 -100 -15 -195 39
-236 134 -19 45 -21 171 -3 233 34 120 163 178 292 133z"/>
<path d="M3350 9151 l0 -238 68 -6 c37 -4 113 -9 170 -13 l102 -7 0 -31 c0
-17 -34 -618 -75 -1335 -83 -1435 -77 -1371 -144 -1406 -18 -9 -79 -20 -144
-26 -61 -5 -118 -12 -124 -14 -10 -3 -13 -58 -13 -230 l0 -225 670 0 670 0 0
240 0 240 -27 1 c-105 2 -325 18 -331 23 -6 7 92 1928 105 2044 3 30 9 50 13
45 4 -4 200 -509 435 -1121 l428 -1112 271 2 270 3 433 1120 c238 616 434
1125 436 1130 2 6 7 8 10 5 10 -10 114 -2014 106 -2050 -16 -69 -64 -89 -254
-107 l-90 -8 -3 -227 -2 -228 685 0 685 0 0 240 0 240 -32 0 c-76 2 -310 18
-314 23 -10 9 -147 2622 -140 2660 17 89 89 129 259 142 l87 7 0 229 0 229
-562 0 -563 0 -484 -1280 c-266 -704 -488 -1280 -492 -1280 -4 0 -15 19 -23
43 -9 23 -225 598 -480 1277 l-464 1235 -571 3 -571 2 0 -239z"/>
<path d="M7840 9150 l0 -240 28 0 c103 -2 296 -20 301 -28 3 -6 265 -742 581
-1636 l575 -1626 370 0 370 0 540 1576 c297 867 551 1597 565 1622 43 79 74
93 253 108 l77 6 0 229 0 229 -655 0 -655 0 0 -239 0 -239 73 -6 c39 -3 118
-9 175 -12 70 -5 102 -10 99 -18 -2 -6 -181 -559 -398 -1228 -300 -932 -397
-1218 -408 -1218 -22 1 -785 2298 -783 2356 4 92 63 122 275 139 l87 7 0 229
0 229 -735 0 -735 0 0 -240z"/>
</g>
</svg>
